HIERARCHY
ROOT Joint1
{
	OFFSET 0.000000 0.000000 0.000000
	CHANNELS 6 Xposition Yposition Zposition Xrotation Yrotation Zrotation
	JOINT Joint2
	{
		OFFSET -0.000000 0.000000 1.456275
		CHANNELS 6 Xposition Yposition Zposition Xrotation Yrotation Zrotation
		JOINT Joint3
		{
			OFFSET -0.000000 0.000002 1.471446
			CHANNELS 6 Xposition Yposition Zposition Xrotation Yrotation Zrotation
			JOINT Joint4
			{
				OFFSET 0.625745 0.000000 0.917755
				CHANNELS 6 Xposition Yposition Zposition Xrotation Yrotation Zrotation
				JOINT Joint5
				{
					OFFSET -0.629534 0.000001 0.940221
					CHANNELS 6 Xposition Yposition Zposition Xrotation Yrotation Zrotation
					JOINT Joint6
					{
						OFFSET -0.000001 0.113772 1.960660
						CHANNELS 6 Xposition Yposition Zposition Xrotation Yrotation Zrotation
						JOINT Joint7
						{
							OFFSET -0.669733 -0.113771 0.388340
							CHANNELS 6 Xposition Yposition Zposition Xrotation Yrotation Zrotation
							End Site
							{
								OFFSET 0.005509 0.005509 0.438980
							}
						}
					}
				}
			}
		}
	}
}
MOTION
Frames: 27
Frame Time: 0.041667
0.000000 0.000000 0.000000 -0.000000 1.019410 33.509297 -0.000000 0.000000 1.456275 0.000007 -65.639136 -0.000000 -0.000000 0.000002 1.471446 -0.000000 -1.133465 -49.695780 0.625745 0.000000 0.917755 -0.000007 81.826971 0.000011 -0.629533 0.000001 0.940221 -0.000005 1.709739 -64.419216 -0.000001 0.113772 1.960660 -88.303882 130.727813 0.000003 -0.669733 -0.113771 0.388340 -0.237712 3.452373 107.616324 
0.000000 0.000000 0.000000 -0.000000 1.019410 32.369066 -0.000000 0.000000 1.456275 -0.000006 -64.936214 -0.000002 -0.000000 0.000002 1.471446 -0.000004 -1.133463 -48.006142 0.625745 0.000001 0.917755 -0.000034 83.636677 0.000016 -0.629534 0.000002 0.940221 -0.000002 1.709737 -62.227934 -0.000001 0.113772 1.960661 -88.303882 129.341189 0.000003 -0.669733 -0.113771 0.388340 -0.252449 3.459841 108.546637 
0.000000 0.000000 0.000000 -0.000000 1.019410 31.273548 -0.000000 0.000000 1.456275 -0.000001 -64.260858 -0.000002 -0.000000 0.000002 1.471446 -0.000001 -1.133464 -46.382756 0.625745 0.000001 0.917755 -0.000021 85.375425 0.000015 -0.629534 0.000001 0.940221 -0.000003 1.709739 -60.122583 -0.000000 0.113772 1.960661 -88.303875 128.008947 0.000010 -0.669733 -0.113771 0.388340 -0.266718 3.466790 109.440469 
0.000000 0.000000 0.000000 -0.000000 1.019410 30.210821 -0.000000 0.000000 1.456275 -0.000004 -63.605720 0.000005 -0.000000 0.000002 1.471445 -0.000003 -1.133463 -44.807977 0.625745 0.000000 0.917755 0.000013 87.062106 -0.000010 -0.629534 0.000001 0.940221 0.000004 1.709733 -58.080261 -0.000001 0.113772 1.960660 -88.303875 126.716565 -0.000001 -0.669733 -0.113771 0.388339 -0.280659 3.473320 110.307548 
0.000000 0.000000 0.000000 -0.000000 1.019410 29.136173 -0.000000 0.000000 1.456275 -0.000007 -62.943226 -0.000001 -0.000001 0.000002 1.471446 -0.000005 -1.133462 -43.215526 0.625745 0.000001 0.917755 -0.000009 88.767713 -0.000114 -0.629533 0.000001 0.940221 0.000000 1.709737 -56.015027 -0.000001 0.113772 1.960660 -88.303868 125.409718 0.000001 -0.669733 -0.113772 0.388340 -0.294861 3.479706 111.184374 
0.000000 0.000000 0.000000 -0.000000 1.019410 28.052576 -0.000000 0.000000 1.456275 -0.000002 -62.275226 -0.000000 -0.000000 0.000002 1.471446 -0.000004 -1.133463 -41.609810 0.625745 0.000000 0.917755 -0.000179 90.487535 0.000086 -0.629533 0.000001 0.940221 0.000003 1.709742 -53.932588 -0.000001 0.113772 1.960660 -88.303868 124.091942 0.000008 -0.669733 -0.113771 0.388340 -0.309277 3.485924 112.068508 
0.000000 0.000000 0.000000 -0.000000 1.019410 26.971941 -0.000000 0.000000 1.456275 -0.000001 -61.609044 0.000004 -0.000000 0.000002 1.471446 -0.000004 -1.133462 -40.008489 0.625744 0.000000 0.917755 0.000055 92.202650 -0.000120 -0.629533 0.000001 0.940221 -0.000004 1.709738 -51.855851 -0.000000 0.113772 1.960661 -88.303875 122.777787 -0.000002 -0.669733 -0.113771 0.388340 -0.323747 3.491905 112.950230 
0.000000 0.000000 0.000000 -0.000000 1.019410 25.894326 -0.000000 0.000000 1.456275 -0.000002 -60.944733 0.000005 -0.000001 0.000002 1.471446 -0.000002 -1.133465 -38.411645 0.625744 0.000001 0.917754 0.000040 93.912956 0.000014 -0.629534 0.000001 0.940221 0.000001 1.709739 -49.784911 -0.000001 0.113772 1.960660 -88.303882 121.467306 -0.000001 -0.669733 -0.113771 0.388340 -0.338269 3.497643 113.829481 
0.000000 0.000000 0.000000 -0.000000 1.019410 24.816784 -0.000000 0.000000 1.456275 0.000006 -60.280456 -0.000003 -0.000000 0.000002 1.471445 -0.000002 -1.133460 -36.814887 0.625745 0.000001 0.917755 0.000015 95.623174 0.000005 -0.629534 0.000001 0.940221 -0.000000 1.709740 -47.714096 -0.000001 0.113772 1.960660 -88.303875 120.156893 0.000002 -0.669733 -0.113771 0.388340 -0.352875 3.503160 114.708710 
0.000000 0.000000 0.000000 -0.000000 1.019410 23.736084 -0.000000 -0.000000 1.456275 0.000001 -59.614246 0.000002 -0.000000 0.000002 1.471446 -0.000002 -1.133462 -35.213481 0.625745 0.000001 0.917755 0.000023 97.338385 -0.000013 -0.629533 0.000001 0.940221 -0.000001 1.709739 -45.637244 -0.000001 0.113773 1.960660 -88.303875 118.842682 0.000007 -0.669733 -0.113771 0.388339 -0.367605 3.508471 115.590488 
0.000000 0.000000 0.000000 -0.000000 1.019410 22.652186 -0.000000 -0.000000 1.456275 0.000001 -58.946049 0.000003 -0.000000 0.000002 1.471446 -0.000000 -1.133462 -33.607328 0.625745 0.000001 0.917755 0.000024 99.058664 -0.000002 -0.629534 0.000001 0.940221 0.000001 1.709739 -43.554238 -0.000001 0.113772 1.960661 -88.303875 117.524565 -0.000001 -0.669733 -0.113771 0.388340 -0.382463 3.513566 116.474888 
0.000000 0.000000 0.000000 -0.000000 1.019410 21.577838 -0.000000 0.000000 1.456275 -0.000001 -58.283746 0.000001 -0.000000 0.000002 1.471446 -0.000001 -1.133465 -32.015316 0.625744 0.000000 0.917755 0.000018 100.763807 -0.000014 -0.629534 0.000001 0.940221 0.000001 1.709735 -41.489571 -0.000001 0.113772 1.960660 -88.303875 116.218059 -0.000003 -0.669733 -0.113771 0.388340 -0.397264 3.518390 117.351529 
0.000000 0.000000 0.000000 -0.000000 1.019410 20.516237 -0.000000 0.000000 1.456275 0.000003 -57.629298 0.000001 -0.000001 0.000002 1.471446 -0.000003 -1.133467 -30.442198 0.625745 0.000000 0.917755 0.000007 102.448712 -0.000016 -0.629533 0.000001 0.940221 0.000000 1.709737 -39.449404 -0.000001 0.113772 1.960660 -88.303875 114.927044 0.000000 -0.669733 -0.113771 0.388340 -0.411966 3.522937 118.217761 
0.000000 0.000000 0.000000 -0.000000 1.019410 19.419590 -0.000000 0.000000 1.456275 -0.000003 -56.953259 0.000001 -0.000000 0.000002 1.471446 -0.000002 -1.133463 -28.817149 0.625745 0.000000 0.917755 0.000008 104.189236 0.000001 -0.629534 0.000001 0.940221 0.000000 1.709736 -37.341898 -0.000001 0.113772 1.960660 -88.303882 113.593429 -0.000002 -0.669733 -0.113770 0.388340 -0.427210 3.527402 119.112571 
0.000000 0.000000 0.000000 -0.000000 1.019410 18.275162 -0.000000 0.000000 1.456275 -0.000002 -56.247748 0.000002 -0.000001 0.000002 1.471446 -0.000001 -1.133464 -27.121291 0.625744 0.000000 0.917755 0.000008 106.005601 -0.000006 -0.629534 0.000001 0.940221 0.000000 1.709735 -35.142546 -0.000001 0.113772 1.960660 -88.303875 112.201689 -0.000004 -0.669733 -0.113771 0.388341 -0.443206 3.531803 120.046421 
0.000000 0.000000 0.000000 -0.000000 1.019410 17.261346 -0.000000 0.000000 1.456275 0.000001 -55.622762 -0.000001 -0.000000 0.000002 1.471446 0.000000 -1.133460 -25.618986 0.625744 0.000000 0.917755 0.000005 107.614651 0.000002 -0.629533 0.000001 0.940221 0.000001 1.709739 -33.194224 -0.000001 0.113772 1.960661 -88.303875 110.968799 0.000007 -0.669734 -0.113771 0.388340 -0.457427 3.535484 120.873653 
0.000000 0.000000 0.000000 -0.000000 1.019410 16.524263 -0.000000 -0.000000 1.456275 -0.000001 -55.168367 0.000000 -0.000001 0.000002 1.471446 -0.000001 -1.133461 -24.526748 0.625745 0.000000 0.917755 0.000008 108.784505 -0.000003 -0.629534 0.000001 0.940221 -0.000000 1.709738 -31.777708 -0.000000 0.113772 1.960660 -88.303882 110.072439 0.000002 -0.669733 -0.113771 0.388340 -0.467797 3.538035 121.475106 
0.000000 0.000000 0.000000 -0.000000 1.019410 15.889634 -0.000000 0.000000 1.456275 -0.000001 -54.777144 -0.000001 -0.000000 0.000002 1.471446 -0.000001 -1.133464 -23.586332 0.625745 0.000000 0.917755 0.000007 109.791760 -0.000004 -0.629533 0.000001 0.940221 0.000001 1.709737 -30.558089 -0.000000 0.113772 1.960661 -88.303875 109.300669 0.000002 -0.669733 -0.113771 0.388340 -0.476755 3.540137 121.992957 
0.000000 0.000000 0.000000 -0.000000 1.019410 15.103100 -0.000000 0.000000 1.456275 0.000000 -54.292272 -0.000001 -0.000000 0.000002 1.471446 -0.000000 -1.133466 -22.420820 0.625745 0.000001 0.917755 0.000005 111.040079 -0.000005 -0.629534 0.000001 0.940221 0.000001 1.709738 -29.046554 -0.000001 0.113772 1.960661 -88.303889 108.344169 0.000008 -0.669733 -0.113771 0.388340 -0.487873 3.542637 122.634735 
0.000000 0.000000 0.000000 -0.000000 1.019410 14.021301 -0.000000 -0.000000 1.456275 -0.000000 -53.625372 0.000000 -0.000000 0.000002 1.471446 0.000002 -1.133458 -20.817769 0.625745 0.000000 0.917755 0.000005 112.757045 -0.000005 -0.629534 0.000001 0.940221 -0.000000 1.709738 -26.967571 -0.000000 0.113772 1.960660 -88.303882 107.028614 -0.000002 -0.669733 -0.113771 0.388340 -0.503214 3.545874 123.517510 
0.000000 0.000000 0.000000 -0.000000 1.019410 12.944857 -0.000000 -0.000000 1.456275 -0.000001 -52.961775 0.000001 -0.000000 0.000002 1.471446 0.000000 -1.133461 -19.222657 0.625745 0.000000 0.917755 0.000005 114.465508 0.000000 -0.629534 0.000001 0.940221 0.000000 1.709740 -24.898883 -0.000001 0.113772 1.960660 -88.303875 105.719553 0.000006 -0.669733 -0.113771 0.388339 -0.518530 3.548851 124.395858 
0.000000 0.000000 0.000000 -0.000000 1.019410 12.171419 -0.000000 0.000000 1.456275 0.000001 -52.484973 -0.000000 -0.000000 0.000002 1.471446 0.000000 -1.133460 -18.076548 0.625745 0.000000 0.917755 0.000004 115.693050 -0.000001 -0.629534 0.000001 0.940221 -0.000000 1.709736 -23.412500 -0.000001 0.113772 1.960660 -88.303868 104.778975 0.000015 -0.669734 -0.113771 0.388340 -0.529559 3.550850 125.026995 
0.000000 0.000000 0.000000 -0.000000 1.019410 11.542741 -0.000000 -0.000000 1.456275 0.000000 -52.097418 0.000002 -0.000001 0.000002 1.471446 0.000000 -1.133462 -17.144953 0.625745 0.000001 0.917755 0.000007 116.690831 -0.000001 -0.629533 0.000001 0.940221 0.000001 1.709737 -22.204322 -0.000000 0.113772 1.960660 -88.303868 104.014444 0.000014 -0.669733 -0.113771 0.388340 -0.538539 3.552384 125.539997 
0.000000 0.000000 0.000000 -0.000000 1.019410 10.786610 -0.000000 0.000000 1.456275 0.000000 -51.631282 0.000000 -0.000000 0.000002 1.471446 0.000000 -1.133461 -16.024495 0.625745 0.000000 0.917755 0.000005 117.890923 -0.000001 -0.629534 0.000001 0.940221 0.000000 1.709738 -20.751208 -0.000000 0.113772 1.960660 -88.303868 103.094923 -0.000003 -0.669733 -0.113771 0.388341 -0.549363 3.554124 126.156995 
0.000000 0.000000 0.000000 -0.000000 1.019410 9.733967 -0.000000 0.000000 1.456275 -0.000001 -50.982359 -0.000000 -0.000001 0.000002 1.471446 0.000001 -1.133460 -14.464645 0.625745 0.000001 0.917755 0.000004 119.561628 -0.000003 -0.629534 0.000001 0.940221 0.000001 1.709738 -18.728254 -0.000000 0.113772 1.960660 -88.303862 101.814809 0.000004 -0.669733 -0.113771 0.388340 -0.564455 3.556352 127.015974 
0.000000 0.000000 0.000000 -0.000000 1.019410 8.628366 -0.000000 0.000000 1.456275 0.000000 -50.300788 -0.000000 -0.000001 0.000002 1.471446 0.000000 -1.133460 -12.826330 0.625745 0.000000 0.917755 0.000005 121.316358 -0.000001 -0.629534 0.000001 0.940221 0.000000 1.709737 -16.603538 -0.000001 0.113772 1.960660 -88.303868 100.470300 0.000001 -0.669733 -0.113771 0.388340 -0.580339 3.558447 127.918119 
0.000000 0.000000 0.000000 -0.000000 1.019410 7.742790 -0.000000 0.000000 1.456275 0.000001 -49.754855 -0.000000 -0.000000 0.000002 1.471446 -0.000001 -1.133461 -11.514051 0.625745 0.000000 0.917755 0.000005 122.721888 -0.000001 -0.629534 0.000001 0.940221 -0.000000 1.709736 -14.901656 -0.000001 0.113772 1.960661 -88.303862 99.393357 0.000018 -0.669733 -0.113771 0.388341 -0.593087 3.559948 128.640766 
